# xmcd
#
# Track frame offsets:
#	150
#	17637
#	35419
#	64467
#	80244
#	94752
#	117303
#	139455
#	156412
#	176065
#	191870
#	210474
#	225782
#	244761
#	258989
#	274984
#	294670
#	310788
#
# Disc length: 4423 seconds
#
# Revision: 0
# Processed by: cddbd v1.5.2PL0 Copyright (c) Steve Scherf et al.
# Submitted via: EasyCDDAExtractor 8.2.3.1
#
DISCID=0e114512
DTITLE=OSCAR BENTON - Star Profile
DYEAR=2000
DGENRE=Blues
TTITLE0=Bensonhurst Blues (Live)
TTITLE1=Busted
TTITLE2=St. Louis Blues
TTITLE3=I Belleve In Love
TTITLE4=Basin' Street Blues
TTITLE5=Helpless
TTITLE6=If You Go Away
TTITLE7=Not the Same Dreams Anymore
TTITLE8=It Ain't Nobody's Business
TTITLE9=I Feel So Good
TTITLE10=How Can I Just Start Again
TTITLE11=I Can't Leave You
TTITLE12=Prisoner Of Love
TTITLE13=My Petite Fleur
TTITLE14=The Day I Got Ride Of the Blues
TTITLE15=Where Will I Go?
TTITLE16=Dedicated To I Am
TTITLE17=Are You Ready?
EXTD=
EXTT0=
EXTT1=
EXTT2=
EXTT3=
EXTT4=
EXTT5=
EXTT6=
EXTT7=
EXTT8=
EXTT9=
EXTT10=
EXTT11=
EXTT12=
EXTT13=
EXTT14=
EXTT15=
EXTT16=
EXTT17=
PLAYORDER=
